<?xml version="1.0" standalone="no"?><!DOCTYPE svg PUBLIC "-//W3C//DTD SVG 1.1//EN" "http://www.w3.org/Graphics/SVG/1.1/DTD/svg11.dtd"><svg t="1611834535188" class="icon" viewBox="0 0 1024 1024" version="1.1" xmlns="http://www.w3.org/2000/svg" p-id="8366" xmlns:xlink="http://www.w3.org/1999/xlink" width="200" height="200"><defs><style type="text/css"></style></defs><path d="M853.333333 468.992H640a85.333333 85.333333 0 0 1-85.333333-85.333333v-213.333334a85.333333 85.333333 0 0 1 85.333333-85.333333h213.333333a85.333333 85.333333 0 0 1 85.333334 85.333333v213.333334a85.333333 85.333333 0 0 1-85.333334 85.333333z m21.333334-298.666667a21.333333 21.333333 0 0 0-21.333334-21.333333H640a21.333333 21.333333 0 0 0-21.333333 21.333333v213.333334a21.333333 21.333333 0 0 0 21.333333 21.333333h213.333333a21.333333 21.333333 0 0 0 21.333334-21.333333v-213.333334z m-490.666667 768H170.666667a85.333333 85.333333 0 0 1-85.333334-85.333333v-213.333333a85.333333 85.333333 0 0 1 85.333334-85.333334h213.333333a85.333333 85.333333 0 0 1 85.333333 85.333334v213.333333a85.333333 85.333333 0 0 1-85.333333 85.333333z m21.333333-298.666666a21.333333 21.333333 0 0 0-21.333333-21.333334H170.666667a21.333333 21.333333 0 0 0-21.333334 21.333334v213.333333a21.333333 21.333333 0 0 0 21.333334 21.333333h213.333333a21.333333 21.333333 0 0 0 21.333333-21.333333v-213.333333z m-21.333333-170.666667H170.666667a85.333333 85.333333 0 0 1-85.333334-85.333333v-213.333334a85.333333 85.333333 0 0 1 85.333334-85.333333h213.333333a85.333333 85.333333 0 0 1 85.333333 85.333333v213.333334a85.333333 85.333333 0 0 1-85.333333 85.333333z m21.333333-298.666667a21.333333 21.333333 0 0 0-21.333333-21.333333H170.666667a21.333333 21.333333 0 0 0-21.333334 21.333333v213.333334a21.333333 21.333333 0 0 0 21.333334 21.333333h213.333333a21.333333 21.333333 0 0 0 21.333333-21.333333v-213.333334z" fill="#d4237a" p-id="8367"></path><path d="M903.061333 857.472l24.661334 24.661333a32 32 0 1 1-45.248 45.248l-24.661334-24.661333a192 192 0 1 1 45.248-45.248z m-65.856-201.621333a128 128 0 1 0 0 181.013333 128 128 0 0 0 0-181.013333z" fill="#d4237a" p-id="8368"></path></svg>