<?xml version="1.0" standalone="no"?><!DOCTYPE svg PUBLIC "-//W3C//DTD SVG 1.1//EN" "http://www.w3.org/Graphics/SVG/1.1/DTD/svg11.dtd"><svg class="icon" width="200px" height="200.00px" viewBox="0 0 1024 1024" version="1.1" xmlns="http://www.w3.org/2000/svg"><path fill="#333333" d="M932.119273 516.049455l-1.117091 365.940363a93.277091 93.277091 0 0 1-93.090909 92.997818H185.949091A93.184 93.184 0 0 1 93.090909 882.036364V514.792727l-21.876364 21.876364A34.909091 34.909091 0 0 1 21.876364 487.330909l432.686545-432.733091a80.989091 80.989091 0 0 1 114.874182 0l432.686545 432.733091a34.909091 34.909091 0 0 1-49.338181 49.338182l-20.666182-20.619636z m-445.812364 229.701818l142.103273-97.466182c42.496-29.137455 42.589091-76.474182 0-105.658182l-142.103273-97.466182c-42.496-29.137455-77.032727-11.124364-77.032727 40.354909v219.834182c0 51.293091 34.490182 69.585455 77.032727 40.401455z"  /></svg>