<?xml version="1.0" standalone="no"?><!DOCTYPE svg PUBLIC "-//W3C//DTD SVG 1.1//EN" "http://www.w3.org/Graphics/SVG/1.1/DTD/svg11.dtd"><svg t="1611834556888" class="icon" viewBox="0 0 1024 1024" version="1.1" xmlns="http://www.w3.org/2000/svg" p-id="9226" xmlns:xlink="http://www.w3.org/1999/xlink" width="200" height="200"><defs><style type="text/css"></style></defs><path d="M896 708.267l85.333-384V320c0-12.8-8.533-21.333-21.333-21.333H275.2L245.333 185.6c-2.133-8.533-10.666-14.933-19.2-14.933H64c-12.8 0-21.333 8.533-21.333 21.333S51.2 213.333 64 213.333h145.067L341.333 710.4c2.134 6.4 6.4 10.667 12.8 12.8-8.533 12.8-12.8 27.733-12.8 44.8 0 46.933 38.4 85.333 85.334 85.333S512 814.933 512 768c0-14.933-4.267-29.867-12.8-42.667H736c-6.4 12.8-12.8 27.734-12.8 42.667 0 46.933 38.4 85.333 85.333 85.333s85.334-38.4 85.334-85.333c0-17.067-4.267-32-12.8-44.8 8.533-2.133 12.8-8.533 14.933-14.933z m-87.467-366.934H934.4l-19.2 85.334H800l8.533-85.334z m-520.533 0h140.8l8.533 85.334h-128L288 341.333z m57.6 213.334l-23.467-85.334h121.6l8.534 85.334H345.6z m10.667 42.666h100.266l8.534 85.334H377.6l-21.333-85.334z m70.4 213.334C403.2 810.667 384 791.467 384 768c0-23.467 19.2-42.667 42.667-42.667s42.666 19.2 42.666 42.667c0 23.467-19.2 42.667-42.666 42.667z m170.666-128h-87.466l-8.534-85.334h96v85.334z m0-128h-102.4l-8.533-85.334h110.933v85.334z m0-128h-115.2l-8.533-85.334h123.733v85.334z m130.134 256H640v-85.334h96l-8.533 85.334z m14.933-128H640v-85.334h110.933l-8.533 85.334z m12.8-128H640v-85.334h125.867L755.2 426.667z m55.467 384C787.2 810.667 768 791.467 768 768c0-23.467 19.2-42.667 42.667-42.667s42.666 19.2 42.666 42.667c0 23.467-19.2 42.667-42.666 42.667z m46.933-128h-87.467l8.534-85.334h96L857.6 682.667z m-72.533-128l8.533-85.334h110.933l-19.2 85.334H785.067z" p-id="9227"></path></svg>